<svg viewBox="0 0 200 120" xmlns="http://www.w3.org/2000/svg">

<!-- nudo central -->
<ellipse cx="100" cy="60" rx="20" ry="15" fill="#c2185b"></ellipse>

<!-- ala izquierda -->
<path d="M100 60 
         C60 20, 20 40, 40 70
         C60 90, 90 80, 100 60" fill="#e91e63"></path>

<!-- ala derecha -->
<path d="M100 60
         C140 20, 180 40, 160 70
         C140 90, 110 80, 100 60" fill="#e91e63"></path>

<!-- cinta izquierda -->
<path d="M85 70
         C70 95, 65 110, 75 115
         C90 105, 95 90, 95 75" fill="#ad1457"></path>

<!-- cinta derecha -->
<path d="M115 70
         C130 95, 135 110, 125 115
         C110 105, 105 90, 105 75" fill="#ad1457"></path>

</svg>